PathFileType  4	(X/Y/Z) C:\Users\antoi\Documents\MyRepositories\mobilecap\ResultsAnalysis
DataRate	CameraRate	NumFrames	NumMarkers	Units	OrigDataRate	OrigDataStartFrame	OrigNumFrames
100.0	100.0	6	55	mm	100.0	684	781
Frame#	Time	r_knee			r_shank_antsup			r_ankle			r_calc			r_5meta			r_toe			L_knee			L_shank_antsup			L_ankle			L_calc			L_5meta			L_toe			r_mknee			r_mankle			L_mknee			L_mankle			r_sh2			r_sh3			r_sh4			L_sh2			L_sh3			r_thigh1			r_thigh2			r_thigh3			r_thigh4			r_thigh5			L_thigh1			L_thigh2			L_thigh3			L_thigh4			r.ASIS			r.PSIS			L.ASIS			L.PSIS			C7			R_Shoulder			L_Shoulder			R_Sternum			L_Sternum			R_humerus			R_elbow_med			R_elbow_lat			R_forearm			R_wrist_radius			R_wrist_ulna			L_humerus			L_elbow_med			L_elbow_lat			L_forearm			L_wrist_radius			L_wrist_ulna			R_HJC			L_HJC			R_HJC_reg			L_HJC_reg			
		X1	Y1	Z1	X2	Y2	Z2	X3	Y3	Z3	X4	Y4	Z4	X5	Y5	Z5	X6	Y6	Z6	X7	Y7	Z7	X8	Y8	Z8	X9	Y9	Z9	X10	Y10	Z10	X11	Y11	Z11	X12	Y12	Z12	X13	Y13	Z13	X14	Y14	Z14	X15	Y15	Z15	X16	Y16	Z16	X17	Y17	Z17	X18	Y18	Z18	X19	Y19	Z19	X20	Y20	Z20	X21	Y21	Z21	X22	Y22	Z22	X23	Y23	Z23	X24	Y24	Z24	X25	Y25	Z25	X26	Y26	Z26	X27	Y27	Z27	X28	Y28	Z28	X29	Y29	Z29	X30	Y30	Z30	X31	Y31	Z31	X32	Y32	Z32	X33	Y33	Z33	X34	Y34	Z34	X35	Y35	Z35	X36	Y36	Z36	X37	Y37	Z37	X38	Y38	Z38	X39	Y39	Z39	X40	Y40	Z40	X41	Y41	Z41	X42	Y42	Z42	X43	Y43	Z43	X44	Y44	Z44	X45	Y45	Z45	X46	Y46	Z46	X47	Y47	Z47	X48	Y48	Z48	X49	Y49	Z49	X50	Y50	Z50	X51	Y51	Z51	X52	Y52	Z52	X53	Y53	Z53	X54	Y54	Z54	X55	Y55	Z55	

684	6.83000000	-260.37007	471.62897	-726.48191	-255.57853	400.16404	-698.76359	-273.73966	91.73971	-720.43002	-339.89946	52.84958	-757.61523	-170.27555	43.93463	-686.99589	-128.06541	62.69820	-743.31845	-282.03811	456.94330	-1057.95901	-263.76480	402.85859	-1070.95775	-283.41274	92.05450	-1080.45477	-348.77383	55.45914	-1032.76643	-191.70117	40.14314	-1116.04244	-139.24928	62.32217	-1063.87799	-254.60546	453.91221	-842.48164	-265.26602	93.35661	-798.08728	-256.82850	443.05703	-954.39290	-264.12671	97.48640	-998.22597	-257.45366	290.23808	-689.49839	-330.08584	400.94956	-713.66852	-336.59171	282.38147	-708.64851	-351.76542	408.57560	-1083.99088	-344.21923	287.73046	-1097.94810	-166.82088	772.79157	-751.65967	-170.23327	661.68753	-737.12741	-221.05729	646.54266	-695.64776	-263.80196	783.99068	-697.49572	-272.75168	666.82353	-698.59857	-174.48491	733.15959	-1062.93961	-188.48639	594.67172	-1061.13148	-289.35045	743.35554	-1090.05462	-294.15362	601.94279	-1081.22407	-170.07023	920.52654	-769.65586	-349.90637	935.67472	-854.91372	-156.52574	900.77346	-1028.45059	-347.33393	923.66271	-961.44065	-329.42681	1388.88520	-905.77921	-263.27143	1348.26253	-747.07813	-258.46763	1346.04603	-1071.55560	-200.49945	1324.24919	-885.97651	-201.78069	1323.81755	-929.23816	-239.40782	1110.02839	-667.35887	-273.17642	1005.53678	-720.13092	-267.62473	1025.56700	-651.85911	-213.66270	919.02616	-620.27845	-186.29272	802.00416	-606.76639	-229.04152	795.08004	-602.35048	-211.35101	1217.37249	-1118.11834	-237.97715	1007.24581	-1069.77079	-242.13075	1013.08310	-1129.67525	-195.51299	921.80358	-1167.86852	-172.19369	796.55677	-1168.67868	-207.93017	786.41243	-1169.62763	-235.89717	844.22585	-796.57489	-222.92043	831.41519	-996.03548	-231.60319	840.67165	-799.12800	-227.48812	821.45675	-969.53312	
685	6.84000000	-260.36865	471.63533	-726.48335	-255.58247	400.12785	-698.81544	-273.72477	91.71410	-720.41254	-339.89658	52.84613	-757.60593	-170.26693	43.92653	-687.00433	-128.04950	62.67529	-743.28773	-282.00757	456.94430	-1057.99027	-263.75238	402.87279	-1070.96952	-283.40996	92.06408	-1080.45005	-348.78721	55.44563	-1032.74895	-191.69642	40.14839	-1116.03779	-139.21573	62.33701	-1063.90763	-254.56181	453.95207	-842.53814	-265.54298	93.00288	-797.43719	-256.75995	443.07732	-954.38557	-264.12718	97.49679	-998.22255	-257.41785	290.21653	-689.49689	-330.09159	400.97277	-713.70881	-336.58087	282.38593	-708.72102	-351.74852	408.57730	-1083.99913	-344.16120	287.79839	-1098.01595	-166.80485	772.80385	-751.64515	-170.22119	661.69389	-737.12996	-221.08290	646.58358	-695.62146	-263.63882	783.88343	-697.64182	-272.87452	666.77799	-698.67933	-174.35955	733.21617	-1062.91404	-188.41450	594.66303	-1061.15330	-289.25132	743.35735	-1090.02973	-294.09553	601.96375	-1081.23847	-170.03839	920.54820	-769.67924	-349.86505	935.70049	-854.91344	-156.43240	900.77765	-1028.44108	-347.27480	923.62645	-961.56824	-329.42198	1388.88194	-905.78088	-263.04707	1348.23170	-747.01902	-258.48647	1346.04828	-1071.54813	-200.48725	1324.22559	-885.95225	-201.78183	1323.79372	-929.22301	-239.33198	1110.06926	-667.29449	-273.11684	1005.51318	-720.00866	-267.54124	1025.56938	-651.74498	-213.54170	919.09321	-620.19866	-186.21675	802.06219	-606.60205	-228.95944	795.21380	-602.06311	-211.40862	1217.37858	-1118.17418	-238.14074	1007.28088	-1069.74550	-242.20005	1013.08375	-1129.71151	-195.51961	921.79883	-1167.81528	-172.15642	796.57076	-1168.60906	-207.87203	786.42196	-1169.60679	-235.86041	844.24630	-796.59472	-222.83216	831.40955	-996.05027	-231.57139	840.74877	-799.12546	-227.43346	821.46086	-969.50309	
686	6.85000000	-260.36518	471.61662	-726.47322	-255.55939	400.10770	-698.82016	-273.73805	91.72550	-720.40867	-339.89046	52.83796	-757.59621	-170.27756	43.93371	-686.96927	-128.03980	62.69497	-743.30309	-281.98370	456.95099	-1057.98011	-263.73423	402.87318	-1070.96698	-283.40980	92.06612	-1080.45352	-348.78423	55.45122	-1032.74179	-191.71358	40.18718	-1116.05038	-139.21911	62.33596	-1063.89761	-254.50086	454.03682	-842.64062	-265.51470	93.05563	-797.48958	-256.77395	443.06876	-954.41004	-264.10592	97.52106	-998.19101	-257.41191	290.21148	-689.49710	-330.03619	400.95226	-713.69593	-336.55907	282.36950	-708.71690	-351.73459	408.58326	-1083.99816	-344.11649	287.84463	-1098.05417	-166.79683	772.83325	-751.66480	-170.20873	661.71033	-737.12645	-221.02537	646.66062	-695.55424	-263.44766	783.77932	-697.79172	-272.92052	666.74855	-698.72992	-174.32384	733.15421	-1062.93074	-188.34524	594.64923	-1061.17279	-289.16311	743.33671	-1090.00480	-294.03962	601.94908	-1081.24270	-170.02143	920.54391	-769.69717	-349.85347	935.69766	-854.90874	-156.35735	900.77633	-1028.43439	-347.18985	923.59420	-961.73682	-329.36452	1388.89985	-905.77550	-263.11848	1348.20319	-747.07002	-258.51061	1346.04290	-1071.53550	-200.48528	1324.20925	-885.92276	-201.77410	1323.77713	-929.21259	-239.30450	1110.07705	-667.21622	-273.04990	1005.48778	-719.88704	-267.45246	1025.63406	-651.58369	-213.41995	919.17397	-620.00361	-186.14982	802.11287	-606.44563	-228.83982	795.30429	-601.84211	-211.47215	1217.39371	-1118.23894	-238.24019	1007.29968	-1069.71953	-242.25245	1013.07246	-1129.69839	-195.54510	921.79444	-1167.76029	-172.09486	796.56418	-1168.49465	-207.84135	786.42233	-1169.58940	-235.84420	844.23958	-796.63026	-222.74665	831.40022	-996.08110	-231.58251	840.75537	-799.17610	-227.33496	821.45390	-969.53500	
687	6.86000000	-260.36481	471.63462	-726.47227	-255.55717	400.14291	-698.80235	-273.75044	91.75704	-720.40044	-339.88605	52.83249	-757.58635	-170.30502	43.91662	-686.94684	-128.05092	62.72641	-743.34338	-281.95883	456.96095	-1057.95802	-263.69006	402.85455	-1070.95239	-283.41199	92.06148	-1080.45639	-348.77967	55.45506	-1032.74079	-191.74343	40.24324	-1116.08012	-139.26081	62.31703	-1063.84863	-254.48079	454.09688	-842.70544	-265.53042	93.05923	-797.45511	-256.75822	443.03244	-954.45006	-264.09512	97.52959	-998.17725	-257.41700	290.21884	-689.49891	-329.96002	400.94981	-713.72843	-336.54422	282.34781	-708.73154	-351.71142	408.59232	-1083.99704	-344.08243	287.87909	-1098.04076	-166.76529	772.85924	-751.65712	-170.17749	661.72764	-737.10807	-221.02402	646.68125	-695.51082	-263.50448	783.84612	-697.74441	-272.91781	666.69971	-698.77758	-174.28916	733.13995	-1062.93972	-188.28356	594.64642	-1061.20576	-289.07306	743.34839	-1090.00595	-293.98001	601.92604	-1081.26357	-170.00075	920.54299	-769.71172	-349.85484	935.70359	-854.91616	-156.28062	900.78636	-1028.48973	-347.07663	923.56096	-961.91046	-329.34217	1388.90785	-905.76957	-263.07430	1348.21735	-747.07690	-258.52548	1346.04209	-1071.52294	-200.47443	1324.19441	-885.89528	-201.76929	1323.76486	-929.21337	-239.27150	1110.09329	-667.12189	-272.97786	1005.47916	-719.78953	-267.41470	1025.70373	-651.41320	-213.33627	919.19012	-619.79804	-186.10497	802.16788	-606.23540	-228.75282	795.32121	-601.70322	-211.52370	1217.40699	-1118.28988	-238.27774	1007.30319	-1069.70065	-242.29587	1013.06188	-1129.68044	-195.56797	921.80132	-1167.70130	-172.03841	796.56395	-1168.41886	-207.81189	786.41926	-1169.56421	-235.81759	844.23536	-796.68796	-222.65649	831.40050	-996.13490	-231.63136	840.76219	-799.25262	-227.20738	821.42614	-969.63149	
688	6.87000000	-260.34660	471.77213	-726.50588	-255.55238	400.18341	-698.78845	-273.73316	91.76667	-720.37446	-339.88694	52.84290	-757.57652	-170.32129	43.91357	-686.94638	-128.05547	62.74988	-743.35302	-281.91459	456.97981	-1058.00168	-263.61912	402.83393	-1070.96893	-283.41404	92.06018	-1080.45333	-348.77889	55.45318	-1032.74231	-191.76113	40.27725	-1116.09894	-139.28479	62.30129	-1063.80902	-254.48049	454.09837	-842.71701	-265.50424	93.11831	-797.51236	-256.67960	443.01824	-954.43166	-264.10535	97.51951	-998.19047	-257.40874	290.22846	-689.50589	-329.94596	401.03227	-713.86925	-336.51825	282.36484	-708.75267	-351.67615	408.60107	-1084.00553	-344.03933	287.85887	-1098.00538	-166.70600	772.87190	-751.60673	-170.12628	661.74701	-737.08604	-221.05491	646.66528	-695.51846	-263.68633	784.03585	-697.58356	-272.93931	666.69582	-698.78401	-174.07729	733.60889	-1062.78560	-188.21122	594.67662	-1061.29223	-288.98256	743.37854	-1090.02353	-293.91727	601.91406	-1081.32821	-170.00490	920.56154	-769.76903	-349.82657	935.72931	-854.93386	-156.18320	900.80277	-1028.61737	-346.96940	923.52783	-962.05153	-329.34936	1388.89617	-905.78374	-262.78911	1348.25873	-746.96757	-258.53017	1346.04711	-1071.51975	-200.46152	1324.19482	-885.89521	-201.77666	1323.75058	-929.20979	-239.22127	1110.11325	-667.00139	-272.92513	1005.51023	-719.74684	-267.41380	1025.72317	-651.26372	-213.29845	919.17290	-619.63107	-186.06462	802.23956	-605.95326	-228.74151	795.34422	-601.49941	-211.55537	1217.41136	-1118.31652	-238.36343	1007.33618	-1069.72338	-242.33974	1013.05371	-1129.66612	-195.58297	921.81789	-1167.67094	-172.00163	796.58162	-1168.36437	-207.77417	786.41572	-1169.53484	-235.77132	844.24811	-796.76770	-222.57074	831.40858	-996.21174	-231.66170	840.80725	-799.33825	-227.11606	821.39550	-969.75562	
689	6.88000000	-260.29550	471.94216	-726.55787	-255.49806	400.19612	-698.79142	-273.70397	91.76396	-720.36688	-339.89248	52.86531	-757.57071	-170.31682	43.96093	-686.92800	-128.03815	62.77106	-743.34632	-281.84332	457.01290	-1058.13144	-263.55091	402.83045	-1071.03302	-283.41259	92.06364	-1080.44938	-348.77919	55.45480	-1032.74487	-191.74700	40.25646	-1116.07892	-139.26242	62.30872	-1063.81801	-254.41835	454.06148	-842.73903	-265.18415	93.54264	-798.22045	-256.61749	443.00588	-954.43069	-264.11115	97.51250	-998.18408	-257.39273	290.22798	-689.51315	-329.99416	401.15743	-714.01600	-336.47841	282.41765	-708.73852	-351.63795	408.60375	-1084.02509	-344.03116	287.73672	-1097.96615	-166.65586	772.87795	-751.57438	-170.07906	661.78251	-737.09152	-221.01174	646.66662	-695.52902	-263.74421	784.11876	-697.47081	-272.88851	666.75418	-698.71187	-173.77030	734.41427	-1062.50587	-188.12435	594.71773	-1061.40413	-288.90961	743.36840	-1090.02544	-293.85665	601.89719	-1081.39607	-170.02849	920.56284	-769.82810	-349.79336	935.73442	-854.92714	-156.09502	900.80583	-1028.72570	-346.89330	923.49255	-962.13144	-329.33242	1388.88202	-905.81147	-262.54967	1348.28337	-746.87533	-258.55117	1346.05414	-1071.56260	-200.46339	1324.20714	-885.93065	-201.78660	1323.73823	-929.20522	-239.18332	1110.13564	-666.89447	-272.87872	1005.56932	-719.72483	-267.40614	1025.74027	-651.12840	-213.26350	919.20970	-619.48771	-186.00782	802.29241	-605.67896	-228.74437	795.41977	-601.17648	-211.58040	1217.40116	-1118.32544	-238.47833	1007.38542	-1069.75673	-242.39140	1013.02578	-1129.61982	-195.60553	921.78906	-1167.61772	-171.98413	796.58425	-1168.25875	-207.73833	786.40997	-1169.50663	-235.73048	844.24342	-796.82611	-222.50832	831.40606	-996.26886	-231.67036	840.82797	-799.40901	-227.05945	821.36437	-969.85518	
